<?xml version="1.0"?>
<svg xmlns="http://www.w3.org/2000/svg" xmlns:xlink="http://www.w3.org/1999/xlink" xmlns:svgjs="http://svgjs.com/svgjs" version="1.1" width="512" height="512" x="0" y="0" viewBox="0 0 512 512" style="enable-background:new 0 0 512 512" xml:space="preserve" class=""><g>
<circle xmlns="http://www.w3.org/2000/svg" style="" cx="256" cy="256" r="256" fill="#8838ff" data-original="#e21b1b" class=""/>
<path xmlns="http://www.w3.org/2000/svg" style="" d="M510.28,285.304L367.912,142.936L150.248,368.608l140.928,140.928  C406.352,493.696,497.056,401.288,510.28,285.304z" fill="#7b3adb" data-original="#c40606" class=""/>
<g xmlns="http://www.w3.org/2000/svg">
	<path style="" d="M354.376,371.536c-5.12,0-10.232-1.952-14.144-5.856L146.408,171.848   c-7.816-7.816-7.816-20.472,0-28.28s20.472-7.816,28.28,0L368.52,337.4c7.816,7.816,7.816,20.472,0,28.28   C364.608,369.584,359.496,371.536,354.376,371.536z" fill="#ffffff" data-original="#ffffff" class=""/>
	<path style="" d="M160.544,371.536c-5.12,0-10.232-1.952-14.144-5.856c-7.816-7.816-7.816-20.472,0-28.28   l193.832-193.832c7.816-7.816,20.472-7.816,28.28,0s7.816,20.472,0,28.28L174.688,365.68   C170.784,369.584,165.664,371.536,160.544,371.536z" fill="#ffffff" data-original="#ffffff" class=""/>
</g>
<g xmlns="http://www.w3.org/2000/svg">
</g>
<g xmlns="http://www.w3.org/2000/svg">
</g>
<g xmlns="http://www.w3.org/2000/svg">
</g>
<g xmlns="http://www.w3.org/2000/svg">
</g>
<g xmlns="http://www.w3.org/2000/svg">
</g>
<g xmlns="http://www.w3.org/2000/svg">
</g>
<g xmlns="http://www.w3.org/2000/svg">
</g>
<g xmlns="http://www.w3.org/2000/svg">
</g>
<g xmlns="http://www.w3.org/2000/svg">
</g>
<g xmlns="http://www.w3.org/2000/svg">
</g>
<g xmlns="http://www.w3.org/2000/svg">
</g>
<g xmlns="http://www.w3.org/2000/svg">
</g>
<g xmlns="http://www.w3.org/2000/svg">
</g>
<g xmlns="http://www.w3.org/2000/svg">
</g>
<g xmlns="http://www.w3.org/2000/svg">
</g>
</g></svg>
