<svg width="18" height="18" viewBox="0 0 18 18" fill="none" xmlns="http://www.w3.org/2000/svg">
<path fill-rule="evenodd" clip-rule="evenodd" d="M0.666661 6.91666C0.666661 10.3684 3.46488 13.1667 6.91666 13.1667C8.35969 13.1667 9.6885 12.6776 10.7464 11.8562C10.7862 11.9405 10.841 12.0195 10.9107 12.0893L15.9107 17.0893C16.2362 17.4147 16.7638 17.4147 17.0893 17.0893C17.4147 16.7638 17.4147 16.2362 17.0893 15.9107L12.0893 10.9107C12.0195 10.841 11.9405 10.7862 11.8562 10.7464C12.6776 9.6885 13.1667 8.3597 13.1667 6.91666C13.1667 3.46488 10.3684 0.666664 6.91666 0.666664C3.46488 0.666664 0.666661 3.46488 0.666661 6.91666ZM2.33333 6.91666C2.33333 4.38536 4.38536 2.33333 6.91666 2.33333C9.44797 2.33333 11.5 4.38536 11.5 6.91666C11.5 9.44797 9.44797 11.5 6.91666 11.5C4.38536 11.5 2.33333 9.44797 2.33333 6.91666Z" fill="#A4A4B2"/>
</svg>
