<svg width="16" height="16" viewBox="0 0 16 16" fill="none" xmlns="http://www.w3.org/2000/svg">
<path fill-rule="evenodd" clip-rule="evenodd" d="M8.99529 1.42925C8.99529 0.916037 8.57925 0.5 8.06604 0.5C7.55283 0.5 7.1368 0.916037 7.1368 1.42925L7.13679 7.00472L1.42925 7.00471C0.916038 7.00471 0.5 7.42075 0.5 7.93396C0.5 8.44717 0.916037 8.8632 1.42925 8.86321H7.13679L7.13679 14.5708C7.13679 15.084 7.55283 15.5 8.06604 15.5C8.57925 15.5 8.99528 15.084 8.99528 14.5708L8.99528 8.86321H14.5708C15.084 8.86321 15.5 8.44717 15.5 7.93396C15.5 7.42075 15.084 7.00472 14.5708 7.00472L8.99528 7.00472L8.99529 1.42925Z" fill="#E942FF"/>
</svg>
